<svg width="256" height="256" viewBox="0 0 256 256" fill="none" xmlns="http://www.w3.org/2000/svg">
  <defs>
    <linearGradient id="kliperGradient" x1="32" y1="26" x2="224" y2="224" gradientUnits="userSpaceOnUse">
      <stop stop-color="#2563EB"/>
      <stop offset="0.48" stop-color="#F4B942"/>
      <stop offset="1" stop-color="#FF6B35"/>
    </linearGradient>
    <radialGradient id="kliperLight" cx="0" cy="0" r="1" gradientUnits="userSpaceOnUse" gradientTransform="translate(82 68) rotate(49) scale(184)">
      <stop stop-color="#FFFFFF" stop-opacity="0.36"/>
      <stop offset="0.42" stop-color="#FFFFFF" stop-opacity="0.08"/>
      <stop offset="1" stop-color="#17213A" stop-opacity="0.18"/>
    </radialGradient>
    <filter id="softShadow" x="34" y="16" width="208" height="236" color-interpolation-filters="sRGB" filterUnits="userSpaceOnUse">
      <feDropShadow dx="0" dy="5" stdDeviation="3" flood-color="#0F172A" flood-opacity="0.3"/>
    </filter>
  </defs>
  <circle cx="128" cy="128" r="124" fill="url(#kliperGradient)"/>
  <circle cx="128" cy="128" r="124" fill="url(#kliperLight)"/>
  <circle cx="128" cy="128" r="119" stroke="#FFFFFF" stroke-opacity="0.28" stroke-width="2"/>
  <g filter="url(#softShadow)">
    <path d="M82 42C88 38 93 41 93 48V215C93 221 88 224 83 221L57 206C50 202 46 195 46 187V78C46 70 50 63 57 59L82 42Z" fill="#1E1E21"/>
    <path d="M197 22C204 17 213 18 219 24L235 37C241 42 241 50 235 56L155 126L235 216C242 223 240 235 231 240L213 250C205 254 196 252 190 245L102 149C92 138 93 122 103 112L189 30C192 27 194 24 197 22Z" fill="#1E1E21"/>
  </g>
  <path d="M82 42C88 38 93 41 93 48V215C93 221 88 224 83 221L57 206C50 202 46 195 46 187V78C46 70 50 63 57 59L82 42Z" fill="#0F172A" fill-opacity="0.18"/>
  <path d="M197 22C204 17 213 18 219 24L235 37C241 42 241 50 235 56L155 126L235 216C242 223 240 235 231 240L213 250C205 254 196 252 190 245L102 149C92 138 93 122 103 112L189 30C192 27 194 24 197 22Z" fill="#0F172A" fill-opacity="0.16"/>
</svg>
