<svg xmlns="http://www.w3.org/2000/svg" viewBox="0 0 1200 700" role="img" aria-label="Районы Тюмени">
<defs>
  <linearGradient id="bg" x1="0" y1="0" x2="1" y2="1"><stop stop-color="#0d1730"/><stop offset="0.52" stop-color="#28355f"/><stop offset="1" stop-color="#6d37d8"/></linearGradient>
  <linearGradient id="river" x1="0" y1="0" x2="1" y2="0"><stop stop-color="#58d8ff" stop-opacity=".15"/><stop offset=".5" stop-color="#58d8ff" stop-opacity=".7"/><stop offset="1" stop-color="#a76eff" stop-opacity=".15"/></linearGradient>
  <filter id="blur"><feGaussianBlur stdDeviation="18"/></filter>
</defs>
<rect width="1200" height="700" fill="url(#bg)"/>
<circle cx="910" cy="95" r="210" fill="#8c4cff" opacity=".22" filter="url(#blur)"/>
<path d="M0 450 C220 350 360 570 590 470 S940 360 1200 470 L1200 700 L0 700Z" fill="url(#river)"/>
<g fill="#fff" opacity=".16">
  <path d="M55 530V275h130v255zm155 0V205h190v325zm220 0V330h105v200zm130 0V170h210v360zm240 0V300h105v230zm135 0V235h205v295z"/>
</g>
<g stroke="#fff" stroke-opacity=".2" fill="none"><path d="M40 555H1160"/><path d="M120 130L1080 610"/><path d="M1010 70L260 635"/></g>
</svg>