<svg xmlns="http://www.w3.org/2000/svg" viewBox="0 0 1400 1401" width="1400" height="1401" role="img" aria-label="Kliper logo">
  <defs>
    <linearGradient id="bg" x1="15%" y1="85%" x2="85%" y2="15%">
      <stop offset="0%" stop-color="#6F2CFF"/>
      <stop offset="100%" stop-color="#8B44FF"/>
    </linearGradient>
  </defs>

  <circle cx="700" cy="700.5" r="700" fill="url(#bg)"/>

  <path fill="#000" d="M 376 193 L 354 200 L 288 251 L 259 280 L 233 313 L 220 335 L 209 363 L 206 382 L 205 997 L 208 1036 L 222 1071 L 255 1115 L 309 1165 L 352 1198 L 364 1204 L 375 1203 L 383 1187 L 387 1106 L 387 206 L 384 198 Z"/>

  <path fill="#000" d="M 902 107 L 880 121 L 846 157 L 626 416 L 455 608 L 440 629 L 431 648 L 426 684 L 432 710 L 444 735 L 492 800 L 878 1275 L 900 1292 L 919 1294 L 948 1286 L 980 1272 L 1061 1223 L 1124 1172 L 1128 1162 L 1126 1147 L 1113 1126 L 804 817 L 706 715 L 678 681 L 679 664 L 721 605 L 807 502 L 955 334 L 1039 232 L 1057 206 L 1058 195 L 1050 180 L 1021 154 L 996 137 L 944 112 L 923 107 Z"/>
</svg>
